<?xml version="1.0" encoding="utf-8"?>
<!-- Generator: Adobe Illustrator 25.0.1, SVG Export Plug-In . SVG Version: 6.00 Build 0)  -->
<svg version="1.0" id="Layer_1" xmlns="http://www.w3.org/2000/svg" xmlns:xlink="http://www.w3.org/1999/xlink" x="0px" y="0px"
	 viewBox="0 0 396 292" style="enable-background:new 0 0 396 292;" xml:space="preserve">
<style type="text/css">
	.st0{fill:none;}
	.st1{fill:#1C8140;}
	.st2{fill:#F9BC15;}
	.st3{fill:#EA4535;}
	.st4{fill:#557EBF;}
	.st5{fill:#3968B2;}
	.st6{fill:#36A852;}
</style>
<g>
	<polygon class="st0" points="158.9,179.6 198,179.6 237.1,179.6 198,111.2 	"/>
	<polygon class="st0" points="158.9,179.6 158.9,179.6 198,111.2 237.1,179.6 237.1,179.6 198,111.2 	"/>
	<path class="st1" d="M231.4,52.7c-2.8-1.4-5.9-2.2-9.2-2.2H198h-24.3c-3.3,0-6.4,0.8-9.2,2.2l33.5,58.4L231.4,52.7z"/>
	<path class="st2" d="M237.1,179.6h68.1c0-3.4-0.9-6.9-2.7-9.9L239.6,60.6c-2-3.4-4.8-6.1-8.2-7.8L198,111.2L237.1,179.6z"/>
	<path class="st3" d="M237.1,179.6l34,59.4c3.2-1.8,5.9-4.4,7.8-7.7l23.7-41.8c1.8-3.1,2.6-6.5,2.6-10H237.1z"/>
	<path class="st4" d="M237.1,179.6H198h-39.1l0,0l-34,59.4c2.9,1.6,6.2,2.5,9.7,2.5H198h63.5c3.4,0,6.8-0.9,9.7-2.5L237.1,179.6
		L237.1,179.6z"/>
	<path class="st5" d="M90.8,179.6c0,3.4,0.9,6.9,2.6,10l23.7,41.8c1.9,3.3,4.6,5.9,7.8,7.7l34-59.4H90.8z"/>
	<path class="st6" d="M198,111.2l-33.4-58.4c-3.4,1.7-6.2,4.4-8.2,7.8L93.5,169.6c-1.8,3.1-2.7,6.5-2.7,9.9h68.1L198,111.2z"/>
</g>
</svg>
